<svg class="plot-d6a7b5" fill="currentColor" font-family="system-ui, sans-serif" font-size="10" text-anchor="middle" width="640" height="800" viewBox="0 0 640 800" xmlns="http://www.w3.org/2000/svg" xmlns:xlink="http://www.w3.org/1999/xlink"><style>.plot-d6a7b5 {
  display: block;
  background: white;
  height: auto;
  height: intrinsic;
  max-width: 100%;
}
.plot-d6a7b5 text,
.plot-d6a7b5 tspan {
  white-space: pre;
}</style><g aria-label="link" fill="none" stroke="steelblue" stroke-opacity="0.5" stroke-miterlimit="1"><path d="M20,575.878C72,575.878,72,412.838,124,412.838"/><path d="M20,575.878C72,575.878,72,738.919,124,738.919"/><path d="M124,412.838C176,412.838,176,168.919,228,168.919"/><path d="M124,412.838C176,412.838,176,461.622,228,461.622"/><path d="M124,412.838C176,412.838,176,574.595,228,574.595"/><path d="M124,412.838C176,412.838,176,656.757,228,656.757"/><path d="M124,738.919C176,738.919,176,697.838,228,697.838"/><path d="M124,738.919C176,738.919,176,718.378,228,718.378"/><path d="M124,738.919C176,738.919,176,738.919,228,738.919"/><path d="M124,738.919C176,738.919,176,759.459,228,759.459"/><path d="M124,738.919C176,738.919,176,780,228,780"/><path d="M228,168.919C280,168.919,280,66.216,332,66.216"/><path d="M228,168.919C280,168.919,280,271.622,332,271.622"/><path d="M228,461.622C280,461.622,280,420.541,332,420.541"/><path d="M228,461.622C280,461.622,280,441.081,332,441.081"/><path d="M228,461.622C280,461.622,280,461.622,332,461.622"/><path d="M228,461.622C280,461.622,280,482.162,332,482.162"/><path d="M228,461.622C280,461.622,280,502.703,332,502.703"/><path d="M228,574.595C280,574.595,280,543.784,332,543.784"/><path d="M228,574.595C280,574.595,280,564.324,332,564.324"/><path d="M228,574.595C280,574.595,280,584.865,332,584.865"/><path d="M228,574.595C280,574.595,280,605.405,332,605.405"/><path d="M228,656.757C280,656.757,280,646.486,332,646.486"/><path d="M228,656.757C280,656.757,280,667.027,332,667.027"/><path d="M332,66.216C384,66.216,384,20,436,20"/><path d="M332,66.216C384,66.216,384,40.541,436,40.541"/><path d="M332,66.216C384,66.216,384,112.432,436,112.432"/><path d="M332,271.622C384,271.622,384,184.324,436,184.324"/><path d="M332,271.622C384,271.622,384,245.946,436,245.946"/><path d="M332,271.622C384,271.622,384,297.297,436,297.297"/><path d="M332,271.622C384,271.622,384,358.919,436,358.919"/><path d="M332,420.541C384,420.541,384,400,436,400"/><path d="M332,420.541C384,420.541,384,420.541,436,420.541"/><path d="M332,420.541C384,420.541,384,441.081,436,441.081"/><path d="M436,40.541C488,40.541,488,30.27,540,30.27"/><path d="M436,40.541C488,40.541,488,50.811,540,50.811"/><path d="M436,112.432C488,112.432,488,91.892,540,91.892"/><path d="M436,112.432C488,112.432,488,112.432,540,112.432"/><path d="M436,112.432C488,112.432,488,132.973,540,132.973"/><path d="M436,184.324C488,184.324,488,174.054,540,174.054"/><path d="M436,184.324C488,184.324,488,194.595,540,194.595"/><path d="M436,245.946C488,245.946,488,235.676,540,235.676"/><path d="M436,245.946C488,245.946,488,256.216,540,256.216"/><path d="M436,297.297C488,297.297,488,297.297,540,297.297"/><path d="M436,358.919C488,358.919,488,338.378,540,338.378"/><path d="M436,358.919C488,358.919,488,358.919,540,358.919"/><path d="M436,358.919C488,358.919,488,379.459,540,379.459"/></g><g aria-label="dot" fill="green"><circle cx="20" cy="575.8783783783783" r="3"><title>/Skills</title></circle><circle cx="124" cy="412.8378378378378" r="3"><title>/Skills/Technical</title></circle><circle cx="124" cy="738.9189189189188" r="3"><title>/Skills/Soft</title></circle><circle cx="228" cy="168.9189189189189" r="3"><title>/Skills/Technical/programming</title></circle><circle cx="228" cy="461.62162162162167" r="3"><title>/Skills/Technical/bioinformatics</title></circle><circle cx="228" cy="574.5945945945946" r="3"><title>/Skills/Technical/devops</title></circle><circle cx="228" cy="656.7567567567568" r="3"><title>/Skills/Technical/miscellaneous</title></circle><circle cx="228" cy="697.8378378378378" r="3"><title>/Skills/Soft/TechnicalWriting</title></circle><circle cx="228" cy="718.3783783783783" r="3"><title>/Skills/Soft/Research</title></circle><circle cx="228" cy="738.9189189189188" r="3"><title>/Skills/Soft/Mentoring</title></circle><circle cx="228" cy="759.4594594594595" r="3"><title>/Skills/Soft/Coaching</title></circle><circle cx="228" cy="780" r="3"><title>/Skills/Soft/CriticalThinking</title></circle><circle cx="332" cy="66.21621621621625" r="3"><title>/Skills/Technical/programming/frontend</title></circle><circle cx="332" cy="271.6216216216216" r="3"><title>/Skills/Technical/programming/backend</title></circle><circle cx="332" cy="420.5405405405405" r="3"><title>/Skills/Technical/bioinformatics/NGS</title></circle><circle cx="332" cy="441.0810810810811" r="3"><title>/Skills/Technical/bioinformatics/Stats</title></circle><circle cx="332" cy="461.62162162162167" r="3"><title>/Skills/Technical/bioinformatics/Genetics</title></circle><circle cx="332" cy="482.16216216216213" r="3"><title>/Skills/Technical/bioinformatics/Evolution</title></circle><circle cx="332" cy="502.70270270270265" r="3"><title>/Skills/Technical/bioinformatics/WDL</title></circle><circle cx="332" cy="543.7837837837839" r="3"><title>/Skills/Technical/devops/BashScripting</title></circle><circle cx="332" cy="564.3243243243243" r="3"><title>/Skills/Technical/devops/Vim</title></circle><circle cx="332" cy="584.8648648648648" r="3"><title>/Skills/Technical/devops/Docker</title></circle><circle cx="332" cy="605.4054054054054" r="3"><title>/Skills/Technical/devops/Nginx</title></circle><circle cx="332" cy="646.4864864864866" r="3"><title>/Skills/Technical/miscellaneous/Vim</title></circle><circle cx="332" cy="667.0270270270271" r="3"><title>/Skills/Technical/miscellaneous/Git</title></circle><circle cx="436" cy="20" r="3"><title>/Skills/Technical/programming/frontend/HTML</title></circle><circle cx="436" cy="40.5405405405405" r="3"><title>/Skills/Technical/programming/frontend/CSS</title></circle><circle cx="436" cy="112.4324324324324" r="3"><title>/Skills/Technical/programming/frontend/JavaScript</title></circle><circle cx="436" cy="184.32432432432432" r="3"><title>/Skills/Technical/programming/backend/Node</title></circle><circle cx="436" cy="245.94594594594594" r="3"><title>/Skills/Technical/programming/backend/Python</title></circle><circle cx="436" cy="297.29729729729735" r="3"><title>/Skills/Technical/programming/backend/R</title></circle><circle cx="436" cy="358.9189189189189" r="3"><title>/Skills/Technical/programming/backend/databases</title></circle><circle cx="436" cy="400" r="3"><title>/Skills/Technical/bioinformatics/NGS/DNASeq</title></circle><circle cx="436" cy="420.5405405405405" r="3"><title>/Skills/Technical/bioinformatics/NGS/RNASeq</title></circle><circle cx="436" cy="441.0810810810811" r="3"><title>/Skills/Technical/bioinformatics/NGS/ATACSeq</title></circle><circle cx="540" cy="30.27027027027025" r="3"><title>/Skills/Technical/programming/frontend/CSS/Bootstrap</title></circle><circle cx="540" cy="50.810810810810835" r="3"><title>/Skills/Technical/programming/frontend/CSS/Tailwind</title></circle><circle cx="540" cy="91.89189189189192" r="3"><title>/Skills/Technical/programming/frontend/JavaScript/VueJS</title></circle><circle cx="540" cy="112.4324324324324" r="3"><title>/Skills/Technical/programming/frontend/JavaScript/threejs</title></circle><circle cx="540" cy="132.972972972973" r="3"><title>/Skills/Technical/programming/frontend/JavaScript/d3</title></circle><circle cx="540" cy="174.05405405405406" r="3"><title>/Skills/Technical/programming/backend/Node/Express</title></circle><circle cx="540" cy="194.59459459459458" r="3"><title>/Skills/Technical/programming/backend/Node/RestfulAPIs</title></circle><circle cx="540" cy="235.67567567567568" r="3"><title>/Skills/Technical/programming/backend/Python/Flask</title></circle><circle cx="540" cy="256.21621621621625" r="3"><title>/Skills/Technical/programming/backend/Python/scikit-learn</title></circle><circle cx="540" cy="297.29729729729735" r="3"><title>/Skills/Technical/programming/backend/R/bioconductor</title></circle><circle cx="540" cy="338.3783783783784" r="3"><title>/Skills/Technical/programming/backend/databases/SQL</title></circle><circle cx="540" cy="358.9189189189189" r="3"><title>/Skills/Technical/programming/backend/databases/mongodb</title></circle><circle cx="540" cy="379.4594594594595" r="3"><title>/Skills/Technical/programming/backend/databases/Redis</title></circle></g><g aria-label="text" fill="green" stroke="snow" stroke-width="3" stroke-linejoin="round" paint-order="stroke" text-anchor="start" font-size="14" font-weight="bold" transform="translate(6,0)"><text y="0.32em" transform="translate(20,575.8783783783783)">Skills<title>/Skills</title></text><text y="0.32em" transform="translate(124,412.8378378378378)">Technical<title>/Skills/Technical</title></text><text y="0.32em" transform="translate(124,738.9189189189188)">Soft<title>/Skills/Soft</title></text><text y="0.32em" transform="translate(228,168.9189189189189)">programming<title>/Skills/Technical/programming</title></text><text y="0.32em" transform="translate(228,461.62162162162167)">bioinformatics<title>/Skills/Technical/bioinformatics</title></text><text y="0.32em" transform="translate(228,574.5945945945946)">devops<title>/Skills/Technical/devops</title></text><text y="0.32em" transform="translate(228,656.7567567567568)">miscellaneous<title>/Skills/Technical/miscellaneous</title></text><text y="0.32em" transform="translate(228,697.8378378378378)">TechnicalWriting<title>/Skills/Soft/TechnicalWriting</title></text><text y="0.32em" transform="translate(228,718.3783783783783)">Research<title>/Skills/Soft/Research</title></text><text y="0.32em" transform="translate(228,738.9189189189188)">Mentoring<title>/Skills/Soft/Mentoring</title></text><text y="0.32em" transform="translate(228,759.4594594594595)">Coaching<title>/Skills/Soft/Coaching</title></text><text y="0.32em" transform="translate(228,780)">CriticalThinking<title>/Skills/Soft/CriticalThinking</title></text><text y="0.32em" transform="translate(332,66.21621621621625)">frontend<title>/Skills/Technical/programming/frontend</title></text><text y="0.32em" transform="translate(332,271.6216216216216)">backend<title>/Skills/Technical/programming/backend</title></text><text y="0.32em" transform="translate(332,420.5405405405405)">NGS<title>/Skills/Technical/bioinformatics/NGS</title></text><text y="0.32em" transform="translate(332,441.0810810810811)">Stats<title>/Skills/Technical/bioinformatics/Stats</title></text><text y="0.32em" transform="translate(332,461.62162162162167)">Genetics<title>/Skills/Technical/bioinformatics/Genetics</title></text><text y="0.32em" transform="translate(332,482.16216216216213)">Evolution<title>/Skills/Technical/bioinformatics/Evolution</title></text><text y="0.32em" transform="translate(332,502.70270270270265)">WDL<title>/Skills/Technical/bioinformatics/WDL</title></text><text y="0.32em" transform="translate(332,543.7837837837839)">BashScripting<title>/Skills/Technical/devops/BashScripting</title></text><text y="0.32em" transform="translate(332,564.3243243243243)">Vim<title>/Skills/Technical/devops/Vim</title></text><text y="0.32em" transform="translate(332,584.8648648648648)">Docker<title>/Skills/Technical/devops/Docker</title></text><text y="0.32em" transform="translate(332,605.4054054054054)">Nginx<title>/Skills/Technical/devops/Nginx</title></text><text y="0.32em" transform="translate(332,646.4864864864866)">Vim<title>/Skills/Technical/miscellaneous/Vim</title></text><text y="0.32em" transform="translate(332,667.0270270270271)">Git<title>/Skills/Technical/miscellaneous/Git</title></text><text y="0.32em" transform="translate(436,20)">HTML<title>/Skills/Technical/programming/frontend/HTML</title></text><text y="0.32em" transform="translate(436,40.5405405405405)">CSS<title>/Skills/Technical/programming/frontend/CSS</title></text><text y="0.32em" transform="translate(436,112.4324324324324)">JavaScript<title>/Skills/Technical/programming/frontend/JavaScript</title></text><text y="0.32em" transform="translate(436,184.32432432432432)">Node<title>/Skills/Technical/programming/backend/Node</title></text><text y="0.32em" transform="translate(436,245.94594594594594)">Python<title>/Skills/Technical/programming/backend/Python</title></text><text y="0.32em" transform="translate(436,297.29729729729735)">R<title>/Skills/Technical/programming/backend/R</title></text><text y="0.32em" transform="translate(436,358.9189189189189)">databases<title>/Skills/Technical/programming/backend/databases</title></text><text y="0.32em" transform="translate(436,400)">DNASeq<title>/Skills/Technical/bioinformatics/NGS/DNASeq</title></text><text y="0.32em" transform="translate(436,420.5405405405405)">RNASeq<title>/Skills/Technical/bioinformatics/NGS/RNASeq</title></text><text y="0.32em" transform="translate(436,441.0810810810811)">ATACSeq<title>/Skills/Technical/bioinformatics/NGS/ATACSeq</title></text><text y="0.32em" transform="translate(540,30.27027027027025)">Bootstrap<title>/Skills/Technical/programming/frontend/CSS/Bootstrap</title></text><text y="0.32em" transform="translate(540,50.810810810810835)">Tailwind<title>/Skills/Technical/programming/frontend/CSS/Tailwind</title></text><text y="0.32em" transform="translate(540,91.89189189189192)">VueJS<title>/Skills/Technical/programming/frontend/JavaScript/VueJS</title></text><text y="0.32em" transform="translate(540,112.4324324324324)">threejs<title>/Skills/Technical/programming/frontend/JavaScript/threejs</title></text><text y="0.32em" transform="translate(540,132.972972972973)">d3<title>/Skills/Technical/programming/frontend/JavaScript/d3</title></text><text y="0.32em" transform="translate(540,174.05405405405406)">Express<title>/Skills/Technical/programming/backend/Node/Express</title></text><text y="0.32em" transform="translate(540,194.59459459459458)">RestfulAPIs<title>/Skills/Technical/programming/backend/Node/RestfulAPIs</title></text><text y="0.32em" transform="translate(540,235.67567567567568)">Flask<title>/Skills/Technical/programming/backend/Python/Flask</title></text><text y="0.32em" transform="translate(540,256.21621621621625)">scikit-learn<title>/Skills/Technical/programming/backend/Python/scikit-learn</title></text><text y="0.32em" transform="translate(540,297.29729729729735)">bioconductor<title>/Skills/Technical/programming/backend/R/bioconductor</title></text><text y="0.32em" transform="translate(540,338.3783783783784)">SQL<title>/Skills/Technical/programming/backend/databases/SQL</title></text><text y="0.32em" transform="translate(540,358.9189189189189)">mongodb<title>/Skills/Technical/programming/backend/databases/mongodb</title></text><text y="0.32em" transform="translate(540,379.4594594594595)">Redis<title>/Skills/Technical/programming/backend/databases/Redis</title></text></g></svg>